<svg xmlns="http://www.w3.org/2000/svg" xmlns:xlink="http://www.w3.org/1999/xlink" width="267" height="98" viewBox="0 0 267 98">
    <defs>
        <path id="tut4ke1iqa" d="M0.587 0.871L94.852 0.871 94.852 97.536 0.587 97.536z"/>
        <path id="p9eu28k94c" d="M0 98L267 98 267 1.126 0 1.126z"/>
    </defs>
    <g fill="none" fill-rule="evenodd">
        <g>
            <g transform="translate(-48 -48) translate(48 48)">
                <g transform="translate(2.253)">
                    <mask id="um8h3syx2b" fill="#fff">
                        <use xlink:href="#tut4ke1iqa"/>
                    </mask>
                    <path fill="#F53241" d="M46.953.875C25.583.61 7.283 14.229.587 33.36c3.579-3.682 8.431-6.497 13.875-8.563 3.011 3.353 6.037 2.2 6.037 2.2-2.089-.744-3.855-2.389-2.99-6.012.617-2.587 2.803-4.345 5.148-4.545h4.727l4.3 4.285c1.502-.182 2.998-.324 4.476-.428l1.547-3.03c1.494-1.387 3.449-1.88 5.31-1.57 1.433.239 3.438 1.086 4.727 3.257-2.584.524-4.873 1.448-4.873 1.448 2.778-.074 6.115.64 8.27 1.185 2.156.545 8.828 2.684 11.055 5.053 1.93 2.052 5.665 5.44 5.665 5.44 7.862 3.617 12.015 6.634 14.13 8.548l.024-.008c1.582 1.402 2.027 2.244 2.027 2.244-.812 4.382-3.398 6.721-3.398 6.721l-.016-.01c-.727.917-1.548 1.651-2.438 1.953-1.97.667-6.228 1.31-10.925 1.237-3.277-.05-6.37-.023-6.74 2.71-.331 2.452 1.504 4.834 3.19 5.835.494.292.967.546 1.423.776.672-.143 2.186-.54 3.085-1.348.21-.188.34.185.296.464-.098.642-.236 1.355-.848 1.952 2.467.807 3.999.576 4.238.098-.548 2.446-3.218 4.8-8.34 4.017-3.428-.523-7.748-2.593-11.859-3.521-8.893-2.009-17.97 2.4-19.622 12.69-1.528 9.513 5.208 20.691 20.577 21.098l.06-.008c-7.603-2.291-11.004-7.41-12.322-11.396-1.431-4.328.042-10.273 3.287-11.504-1.66 3.609.384 11.926 12.264 15.047 11.586 3.043 21.231-2.74 25.746-7.05 8.015-8.537 12.992-19.976 13.148-32.613.33-26.807-21.112-48.805-47.895-49.137" mask="url(#um8h3syx2b)"/>
                </g>
                <path fill="#001E5F" d="M70.908 60.723c-3.718-2.88-2.233-7.772-2.233-7.772s-1.835-.037-2.839.044c-2.034.165-3.582.77-3.836 2.746-.324 2.528 1.474 4.984 3.125 6.015 2.362 1.474 4.308 2.145 5.694 2.368 1.146.184 2.11.06 2.331-.365.05-.16.27-.81-.573-1.726.856-1.184.702-2.568.464-2.544-.152.016-.397.584-2.133 1.234M83.598 40.552l-2.147.779-2.21 2.865-3.76.413 6.747 4.954s2.581-2.352 3.392-6.756c0 0-.443-.846-2.022-2.255"/>
                <path fill="#FFF" d="M75.337 44.79l3.73-.41 2.195-2.848 2.105-.766c-2.096-1.913-6.21-4.926-14-8.539 0 0-3.7-3.385-5.612-5.435-2.207-2.367-8.817-4.503-10.953-5.047-2.136-.546-5.442-1.258-8.195-1.185 0 0 2.269-.923 4.828-1.447-1.277-2.167-3.264-3.014-4.684-3.254-1.843-.31-3.779.184-5.26 1.57l-1.532 3.026c-1.465.104-2.947.246-4.436.427l-4.26-4.28H24.58c-2.324.2-4.49 1.956-5.101 4.541-.857 3.62.893 5.262 2.962 6.007 0 0-2.997 1.15-5.981-2.2-5.41 2.072-10.232 4.893-13.782 8.589C1.008 38.367.07 43.545.004 48.94-.132 59.99 3.412 70.216 9.478 78.448c-3.184-4.847-5.023-10.237-5.023-15.753 0-17.53 15.756-31.779 37.189-30.313 0 0-25.16.994-26.732 27.558 0 0 2.581-4.033 8.733-5.322 0 0-6.22 15.692 3.957 31.62C34.203 96.567 44.794 97.93 49.46 97.995l.35.005c1.549-.056 3.08-.18 4.588-.38-15.29-.367-21.991-11.561-20.474-21.083 1.637-10.279 10.63-14.682 19.442-12.676 4.072.927 8.353 2.994 11.749 3.518 5.074.782 7.72-1.57 8.262-4.012-.236.475-1.753.706-4.199-.1.607-.595.743-1.309.841-1.949.043-.278-.086-.652-.294-.463-.89.806-2.389 1.202-3.055 1.347-.453-.23-.921-.485-1.41-.777-1.67-.999-3.49-3.378-3.16-5.829.365-2.73 3.43-2.756 6.676-2.706 4.654.073 8.873-.57 10.825-1.237.882-.3 1.695-1.034 2.416-1.95l-6.68-4.913z"/>
                <path fill="#FFF" d="M84.494 82.663c-4.195 4.27-14.316 10.755-26.607 7.602C45.929 87.196 43.872 79.02 45.543 75.47c-3.266 1.212-4.75 7.055-3.309 11.311 1.33 3.926 4.763 8.973 12.45 11.218 1.508-.22 16.955-1.51 29.81-15.337"/>
                <path fill="#001E5F" d="M83.598 40.552l-2.147.779-2.21 2.865-3.76.413 6.747 4.954s2.581-2.352 3.392-6.756c0 0-.443-.846-2.022-2.255M23.659 25.908c-1.44-1.354-1.602-3.254.11-4.143 1.567-.815 4.145-.304 5.522 2.034-2.702-1.296-4.107.151-4.107.151l1.06 1.196s-1.362.148-2.585.762M56.073 32.107c-.613-.408-1.61-.666-3.185-.53-1.28.11-4.445 1.322-4.445 1.322s3.13.693 5.967 2.36c.853.503 1.965.128 2.63-1.005 0 0 4.712 1.701 4.922 1.792l-5.889-3.94zM49.992 97.972c-24.014.825-45.486-16.726-45.486-35.71 0-17.706 15.94-32.098 37.621-30.617 0 0-25.452 1.003-27.041 27.834 0 0 2.61-4.073 8.833-5.375 0 0-6.293 15.85 4.004 31.938 6.677 10.433 17.392 11.81 22.112 11.874 1.474.02.035.054-.043.056M112.658 32.667L114.96 32.667 121.641 42.17 121.641 32.667 123.924 32.667 123.924 46.184 121.641 46.184 114.96 36.681 114.96 46.184 112.658 46.184zM134.12 41.105c0-1.686-1.318-3.11-2.874-3.11-1.574 0-2.891 1.424-2.891 3.11 0 1.706 1.317 3.13 2.891 3.13 1.556 0 2.873-1.424 2.873-3.13m-7.942 0c0-2.754 2.325-5.059 5.07-5.059s5.07 2.305 5.07 5.06c0 2.755-2.325 5.078-5.07 5.078s-5.07-2.323-5.07-5.079M144.203 36.046v1.993c-2.038 0-3.395 1.265-3.395 3.143v5.002h-2.238v-9.908h2.238v1.917c.605-1.323 1.834-2.147 3.395-2.147M154.27 40.77c0-1.58-1.125-2.72-2.706-2.72-1.563 0-2.687 1.14-2.687 2.72 0 1.6 1.124 2.738 2.687 2.738 1.58 0 2.706-1.138 2.706-2.738zm2.325-4.492v8.908c0 2.564-2.134 4.377-5.146 4.377-1.696 0-3.259-.56-4.23-1.33l.858-1.716c.685.636 1.867 1.041 3.03 1.041 1.942 0 3.163-.945 3.163-2.45v-1.291c-.78 1.06-1.963 1.696-3.373 1.696-2.554 0-4.441-1.967-4.441-4.743 0-2.776 1.887-4.724 4.44-4.724 1.392 0 2.669.656 3.374 1.716v-1.484h2.325zM170.114 44.723l1.01-1.593c.92.674 1.986 1.124 3.182 1.124.9 0 1.524-.393 1.524-.993 0-.75-.827-.993-1.91-1.294-2.06-.543-3.364-1.142-3.383-2.866 0-1.818 1.47-3.055 3.584-3.055 1.304 0 2.61.468 3.64 1.161l-.937 1.668c-.901-.58-1.875-.88-2.703-.88-.79 0-1.397.32-1.397.862 0 .619.497.806 1.948 1.237 1.6.45 3.328 1.011 3.328 3.036 0 1.856-1.508 3.054-3.733 3.054-1.451 0-3.014-.524-4.153-1.461M123.924 57.448L123.924 70.966 121.55 70.966 121.55 65.201 115.034 65.201 115.034 70.966 112.658 70.966 112.658 57.448 115.034 57.448 115.034 62.957 121.55 62.957 121.55 57.448zM130.15 57.321c0 .523.428.96.942.96.513 0 .941-.437.941-.96 0-.523-.428-.96-.941-.96-.514 0-.942.437-.942.96m-1.146 0c0-1.178.949-2.126 2.088-2.126 1.158 0 2.087.948 2.087 2.126 0 1.18-.93 2.146-2.087 2.146-1.14 0-2.088-.967-2.088-2.146m3.928 10.282V66.48c-.72-.25-1.537-.386-2.41-.386-1.157 0-2.086.657-2.086 1.603 0 .949.815 1.547 1.915 1.547 1.12 0 2.315-.579 2.581-1.642m2.258-2.88v6.01h-2.258v-1.198c-.72.928-1.954 1.43-3.093 1.43-2.087 0-3.662-1.256-3.662-3.187 0-1.973 1.803-3.325 4.004-3.325.891 0 1.859.192 2.751.54v-.27c0-1.159-.627-2.28-2.41-2.28-.93 0-1.821.327-2.656.754l-.797-1.644c1.385-.695 2.675-1.043 3.909-1.043 2.599 0 4.212 1.68 4.212 4.213M146.456 64.66v6.306h-2.244V65.12c0-1.342-.856-2.3-2.073-2.3s-2.224.825-2.377 1.878v6.267h-2.319v-9.908h2.319v1.322c.61-.92 1.75-1.552 3.043-1.552 2.149 0 3.65 1.59 3.65 3.832M156.549 65.57c0-1.932-1.131-3.306-2.752-3.306-1.639 0-2.808 1.374-2.808 3.306 0 1.931 1.17 3.325 2.808 3.325 1.62 0 2.752-1.394 2.752-3.325zm2.3-9.248v14.404h-2.3v-1.593c-.772 1.155-1.942 1.833-3.373 1.833-2.583 0-4.467-2.23-4.467-5.396 0-3.145 1.884-5.376 4.467-5.376 1.431 0 2.6.677 3.373 1.832v-5.704h2.3zM168.964 65.57c0-1.932-1.166-3.306-2.803-3.306-1.618 0-2.747 1.374-2.747 3.306 0 1.931 1.13 3.325 2.747 3.325 1.637 0 2.803-1.394 2.803-3.325m2.277 0c0 3.165-1.882 5.396-4.459 5.396-1.449 0-2.615-.697-3.386-1.873v1.633h-2.295V56.322h2.295v5.743c.771-1.175 1.937-1.871 3.386-1.871 2.577 0 4.459 2.231 4.459 5.376M180.249 67.704v-1.087c-.722-.244-1.537-.375-2.41-.375-1.159 0-2.088.638-2.088 1.556s.816 1.499 1.917 1.499c1.12 0 2.315-.562 2.58-1.593m2.258-2.791v5.827h-2.257v-1.162c-.722.9-1.955 1.388-3.093 1.388-2.088 0-3.662-1.22-3.662-3.093 0-1.911 1.802-3.222 4.003-3.222.892 0 1.86.185 2.752.524v-.262c0-1.125-.628-2.213-2.41-2.213-.931 0-1.823.32-2.657.732l-.797-1.593c1.385-.675 2.675-1.011 3.909-1.011 2.6 0 4.212 1.63 4.212 4.085"/>
                <mask id="ep0rvydzpd" fill="#fff">
                    <use xlink:href="#p9eu28k94c"/>
                </mask>
                <path fill="#001E5F" d="M184.759 70.966L187.013 70.966 187.013 57.448 184.759 57.448zM189.266 70.966L191.519 70.966 191.519 57.448 189.266 57.448zM197.734 60.744h2.39v1.996h-2.39v8.226h-2.43V62.74h-1.532v-1.996h1.532v-1.477c0-1.72 1.225-2.945 2.98-2.945.797 0 1.656.316 2.248.81l-.716 1.542c-.223-.218-.612-.375-1.041-.375-.592 0-1.041.494-1.041 1.185v1.26zM209.6 65.887c0-1.687-1.317-3.11-2.873-3.11-1.573 0-2.891 1.423-2.891 3.11 0 1.706 1.318 3.13 2.891 3.13 1.556 0 2.873-1.424 2.873-3.13m-7.942 0c0-2.754 2.324-5.06 5.07-5.06 2.745 0 5.07 2.306 5.07 5.06 0 2.754-2.325 5.079-5.07 5.079-2.746 0-5.07-2.325-5.07-5.079M219.684 60.828v1.992c-2.038 0-3.395 1.265-3.395 3.143v5.003h-2.238v-9.908h2.238v1.916c.605-1.322 1.834-2.146 3.395-2.146M229.8 65.57c0-1.932-1.166-3.306-2.803-3.306-1.618 0-2.746 1.374-2.746 3.306 0 1.931 1.128 3.325 2.746 3.325 1.637 0 2.803-1.394 2.803-3.325m2.276 0c0 3.165-1.881 5.396-4.458 5.396-1.45 0-2.615-.697-3.386-1.873v1.633h-2.295V56.322h2.295v5.743c.77-1.175 1.937-1.871 3.386-1.871 2.577 0 4.458 2.231 4.458 5.376M242.215 60.828v9.907h-2.32v-1.322c-.608.92-1.75 1.553-3.041 1.553-2.15 0-3.651-1.592-3.651-3.834v-6.304h2.243v5.844c0 1.342.856 2.3 2.073 2.3 1.216 0 2.225-.823 2.376-1.878v-6.266h2.32zM254.608 64.66v6.306h-2.244V65.12c0-1.342-.856-2.3-2.073-2.3s-2.225.825-2.377 1.878v6.267h-2.32v-9.908h2.32v1.322c.61-.92 1.75-1.552 3.042-1.552 2.15 0 3.652 1.59 3.652 3.832M264.7 65.57c0-1.932-1.13-3.306-2.751-3.306-1.639 0-2.808 1.374-2.808 3.306 0 1.931 1.169 3.325 2.808 3.325 1.62 0 2.752-1.394 2.752-3.325zm2.3-9.248v14.404h-2.3v-1.593c-.772 1.155-1.94 1.833-3.372 1.833-2.583 0-4.467-2.23-4.467-5.396 0-3.145 1.884-5.376 4.467-5.376 1.431 0 2.6.677 3.373 1.832v-5.704H267zM162.988 38.07c1.434 0 2.299.861 2.574 2.08h-5.346c.355-1.275 1.435-2.08 2.772-2.08zm2.602 5.165c-.582.537-1.666.926-2.583.926-1.455 0-2.516-.938-2.81-2.268h7.664c0-3.58-1.827-5.847-4.972-5.847-2.888 0-5.167 2.136-5.167 5.041 0 2.98 2.396 5.097 5.304 5.097 1.455 0 3.194-.585 4.089-1.466l-1.525-1.483z" mask="url(#ep0rvydzpd)"/>
            </g>
        </g>
    </g>
</svg>
