<?xml version="1.0" encoding="utf-8"?>
<!-- Generator: Adobe Illustrator 23.0.1, SVG Export Plug-In . SVG Version: 6.00 Build 0)  -->
<svg version="1.1" id="Layer_1" xmlns="http://www.w3.org/2000/svg" xmlns:xlink="http://www.w3.org/1999/xlink" x="0px" y="0px"
	 viewBox="0 0 3366 475" style="enable-background:new 0 0 3366 475;" xml:space="preserve">
<style type="text/css">
	.st0{fill:#40BAC8;}
	.st1{fill:#FFFFFF;}
</style>
<path class="st0" d="M162.6,475h152.7V359.5L278,322.2h-79.2l-36.3,37.3V475H162.6z M360.1,161.1l-36.3,36.3v80.1l36.3,36.3h116.4
	V161.1H360.1z M315.4,0H162.6v116.4l36.3,36.3h79.2l37.3-36.3V0z M476.5,475V359.5l-36.3-37.3H323.8V475H476.5z M37.8,0L1.5,36.3
	v116.4h152.7V0H37.8z M323.8,0v116.4l36.3,36.3h116.4V0H323.8z M239,259.9c-12.1,0-21.4-10.2-21.4-21.4c0-12.1,10.2-21.4,21.4-21.4
	c12.1,0,21.4,10.2,21.4,21.4S251.1,259.9,239,259.9z M154.2,161.1H1.5v152.7H117l37.3-36.3V161.1H154.2z M154.2,359.5L117,322.3H1.5
	V475H117l37.3-36.3v-79.2H154.2z"/>
<path class="st1" d="M803.4,359.5c-2.8,0-3.7-0.9-4.7-3.7l-38.2-135h-0.9l-38.2,135c-0.9,2.8-1.9,3.7-4.7,3.7H672
	c-2.8,0-3.7-0.9-4.7-3.7l-65.2-234.7c0-1.9,0-3.7,2.8-3.7h58.7c2.8,0,4.7,1.9,4.7,3.7L699,261.7h0.9l37.3-140.6
	c0.9-2.8,1.9-3.7,4.7-3.7h36.3c2.8,0,3.7,0.9,4.7,3.7L822,261.7h0.9l29.8-140.6c0-1.9,1.9-3.7,4.7-3.7h58.7c1.9,0,2.8,1.9,2.8,3.7
	l-65.2,234.7c-0.9,2.8-1.9,3.7-4.7,3.7H803.4L803.4,359.5z M965.5,359.5c-1.9,0-3.7-1.9-3.7-3.7V121.1c0-1.9,1.9-3.7,3.7-3.7h96.9
	c58.7,0,89.4,33.5,89.4,80.1s-30.7,81-89.4,81H1027c-1.9,0-1.9,0.9-1.9,1.9v74.5c0,1.9-1.9,3.7-3.7,3.7h-55.9L965.5,359.5
	L965.5,359.5z M1089.3,198.4c0-16.8-11.2-27-30.7-27h-31.7c-1.9,0-1.9,0.9-1.9,1.9v50.3c0,1.9,0.9,1.9,1.9,1.9h31.7
	C1078.2,225.4,1089.3,214.2,1089.3,198.4L1089.3,198.4z M1234.6,299.9c-4.7-13-6.5-28.9-6.5-60.5c0-30.7,2.8-47.5,6.5-60.5
	c12.1-38.2,41.9-57.7,80.1-57.7c39.1,0,68,19.6,80.1,57.7c4.7,13,6.5,27.9,6.5,56.8c0,2.8-1.9,4.7-5.6,4.7h-151.8
	c-1.9,0-2.8,1.9-2.8,3.7c0,25.1,1.9,39.1,5.6,51.2c11.2,34.5,36.3,49.4,69.9,49.4c31.7,0,55-14,68.9-32.6c1.9-2.8,4.7-2.8,6.5-0.9
	l2.8,2.8c2.8,1.9,2.8,4.7,0.9,6.5c-15.8,22.4-42.8,38.2-78.2,38.2C1275.6,358.6,1247.7,339,1234.6,299.9L1234.6,299.9z
	 M1385.5,227.3c1.9,0,2.8-0.9,2.8-2.8c0-15.8-1.9-28.9-5.6-40c-10.2-32.6-34.5-49.4-67.1-49.4s-56.8,15.8-67.1,49.4
	c-3.7,11.2-5.6,23.3-5.6,40c0,1.9,0.9,2.8,2.8,2.8H1385.5z M1617.4,353.9c-2.8,0-4.7-1.9-4.7-4.7v-136c0-54-22.4-77.3-66.1-77.3
	c-38.2,0-69.9,26.1-69.9,70.8v143.4c0,2.8-1.9,4.7-4.7,4.7h-4.7c-2.8,0-4.7-1.9-4.7-4.7V132.3c0-2.8,1.9-4.7,4.7-4.7h4.7
	c2.8,0,4.7,1.9,4.7,4.7V164h0.9c11.2-26.1,37.3-41.9,69.9-41.9c51.2,0,80.1,28.9,80.1,87.5v139.7c0,2.8-1.9,4.7-4.7,4.7h-5.5V353.9z
	 M1695.7,412.6c-1.9-2.8-1.9-5.6,0.9-6.5l3.7-2.8c2.8-1.9,4.7-0.9,6.5,1.9c13,16.8,32.6,27,60.5,27c42.8,0,70.8-21.4,70.8-77.3
	v-38.2h-0.9c-11.2,25.1-30.7,42.8-70.8,42.8c-38.2,0-64.3-20.5-75.4-54c-5.6-15.8-7.5-36.3-7.5-64.3s2.8-48.4,7.5-64.3
	c11.2-33.5,37.3-54,75.4-54c40,0,59.6,17.7,70.8,42.8h0.9v-32.6c0-2.8,1.9-4.7,4.7-4.7h4.7c2.8,0,4.7,1.9,4.7,4.7v222.6
	c0,62.4-33.5,90.3-85.7,90.3C1733.8,445.2,1706.8,430.3,1695.7,412.6z M1831.6,299.9c4.7-14,6.5-30.7,6.5-59.6
	c0-27.9-1.9-45.6-6.5-59.6c-11.2-33.5-35.4-45.6-63.3-45.6c-30.7,0-53.1,14.9-62.4,44.7c-4.7,14-7.5,33.5-7.5,59.6
	s2.8,45.6,7.5,59.6c10.2,29.8,31.7,44.7,62.4,44.7C1796.3,345.5,1821.4,333.4,1831.6,299.9z M1930.4,56.8c-2.8,0-4.7-1.9-4.7-4.7
	V33.5c0-2.8,1.9-4.7,4.7-4.7h11.2c2.8,0,4.7,1.9,4.7,4.7v19.6c0,2.8-1.9,4.7-4.7,4.7h-11.2V56.8z M1934.1,353.9
	c-2.8,0-4.7-1.9-4.7-4.7v-217c0-2.8,1.9-4.7,4.7-4.7h4.7c2.8,0,4.7,1.9,4.7,4.7v217c0,2.8-1.9,4.7-4.7,4.7H1934.1L1934.1,353.9z
	 M2175.3,353.9c-2.8,0-4.7-1.9-4.7-4.7v-136c0-54-22.4-77.3-66.1-77.3c-38.2,0-69.9,26.1-69.9,70.8v143.4c0,2.8-1.9,4.7-4.7,4.7
	h-4.7c-2.8,0-4.7-1.9-4.7-4.7V132.3c0-2.8,1.9-4.7,4.7-4.7h4.7c2.8,0,4.7,1.9,4.7,4.7V164h0.9c11.2-26.1,37.3-41.9,69.9-41.9
	c51.2,0,80.1,28.9,80.1,87.5v139.7c0,2.8-1.9,4.7-4.7,4.7L2175.3,353.9L2175.3,353.9z M2248.9,299.9c-4.7-13-6.5-28.9-6.5-60.5
	c0-30.7,2.8-47.5,6.5-60.5c12.1-38.2,41.9-57.7,80.1-57.7c39.1,0,68,19.6,80.1,57.7c4.7,13,6.5,27.9,6.5,56.8c0,2.8-1.9,4.7-5.6,4.7
	h-151.8c-1.9,0-2.8,1.9-2.8,3.7c0,25.1,1.9,39.1,5.6,51.2c11.2,34.5,36.3,49.4,69.9,49.4c31.7,0,55-14,68.9-32.6
	c1.9-2.8,4.7-2.8,6.5-0.9l2.8,2.8c2.8,1.9,2.8,4.7,0.9,6.5c-15.8,22.4-42.8,38.2-78.2,38.2C2289.9,358.6,2261,339,2248.9,299.9
	L2248.9,299.9z M2398.8,227.3c1.9,0,2.8-0.9,2.8-2.8c0-15.8-1.9-28.9-5.6-40c-10.2-32.6-34.5-49.4-67.1-49.4s-56.8,15.8-67.1,49.4
	c-3.7,11.2-5.6,23.3-5.6,40c0,1.9,0.9,2.8,2.8,2.8H2398.8z M2443.6,150c0-15.8,12.1-27.9,27.9-27.9s27.9,12.1,27.9,27.9
	s-12.1,27.9-27.9,27.9S2443.6,165.8,2443.6,150z M2494.8,150c0-14-10.2-23.3-23.3-23.3c-14,0-23.3,10.2-23.3,23.3
	c0,14,10.2,23.3,23.3,23.3S2494.8,163.9,2494.8,150z M2462.2,165.8c-0.9,0-0.9,0-0.9-0.9V136c0-0.9,0-0.9,0.9-0.9h11.2
	c6.5,0,10.2,3.7,10.2,9.3c0,3.7-1.9,7.5-6.5,8.4l6.5,12.1c0.9,0.9,0,1.9-0.9,1.9h-2.8c-0.9,0-0.9-0.9-1.9-0.9l-6.5-12.1h-6.5V165
	c0,0.9-0.9,0.9-0.9,0.9L2462.2,165.8L2462.2,165.8z M2478.9,143.4c0-2.8-1.9-4.7-5.6-4.7h-7.5v9.3h7.5
	C2477.1,148.1,2478.9,146.2,2478.9,143.4z"/>
<g>
	<path class="st1" d="M2776.8,355.2c-2.8,0-4.7-1.9-4.7-4.7v-136c0-54-22.4-77.3-66.1-77.3c-38.2,0-69.9,26.1-69.9,70.8v143.4
		c0,2.8-1.9,4.7-4.7,4.7h-4.7c-2.8,0-4.7-1.9-4.7-4.7V133.6c0-2.8,1.9-4.7,4.7-4.7h4.7c2.8,0,4.7,1.9,4.7,4.7v31.7h0.9
		c11.2-26.1,37.3-41.9,69.9-41.9c51.2,0,80.1,28.9,80.1,87.5v139.7c0,2.8-1.9,4.7-4.7,4.7L2776.8,355.2L2776.8,355.2z"/>
	<path class="st1" d="M2781.6,173.9l4.7-11.7c12.1-26.5,38.2-39.9,70.8-39.9c51.2,0,80.1,28.9,80.1,87.5v137.4c0,3.9-3.1,7-7,7h-3.3
		l0,0c-2.8,0-4.7-1.9-4.7-4.7v-136c0-54-22.4-77.3-66.1-77.3c-38.2,0-69.9,26.1-69.9,70.8v143.4c0,2.8-1.9,4.7-4.7,4.7"/>
	<path class="st1" d="M2786.3,135"/>
	<path class="st1" d="M2779.3,128"/>
	<path class="st1" d="M2777,355.2c-2.8,0-4.7-1.9-4.7-4.7"/>
</g>
<g>
	<path class="st1" d="M3014.4,59.1c-2.8,0-4.7-1.9-4.7-4.7V35.8c0-2.8,1.9-4.7,4.7-4.7h11.2c2.8,0,4.7,1.9,4.7,4.7v19.6
		c0,2.8-1.9,4.7-4.7,4.7h-11.2V59.1z"/>
	<path class="st1" d="M3018.1,356.2c-2.8,0-4.7-1.9-4.7-4.7v-217c0-2.8,1.9-4.7,4.7-4.7h4.7c2.8,0,4.7,1.9,4.7,4.7v217
		c0,2.8-1.9,4.7-4.7,4.7H3018.1L3018.1,356.2z"/>
</g>
<path class="st1" d="M3259.3,355.2c-2.8,0-4.7-1.9-4.7-4.7v-136c0-54-22.4-77.3-66.1-77.3c-38.2,0-69.9,26.1-69.9,70.8v143.4
	c0,2.8-1.9,4.7-4.7,4.7h-4.7c-2.8,0-4.7-1.9-4.7-4.7V133.6c0-2.8,1.9-4.7,4.7-4.7h4.7c2.8,0,4.7,1.9,4.7,4.7v31.7h0.9
	c11.2-26.1,37.3-41.9,69.9-41.9c51.2,0,80.1,28.9,80.1,87.5v139.7c0,2.8-1.9,4.7-4.7,4.7L3259.3,355.2L3259.3,355.2z"/>
<g>
	<path class="st1" d="M3347.4,59.1c-2.8,0-4.7-1.9-4.7-4.7V35.8c0-2.8,1.9-4.7,4.7-4.7h11.2c2.8,0,4.7,1.9,4.7,4.7v19.6
		c0,2.8-1.9,4.7-4.7,4.7h-11.2V59.1z"/>
	<path class="st1" d="M3351.1,356.2c-2.8,0-4.7-1.9-4.7-4.7v-217c0-2.8,1.9-4.7,4.7-4.7h4.7c2.8,0,4.7,1.9,4.7,4.7v217
		c0,2.8-1.9,4.7-4.7,4.7H3351.1L3351.1,356.2z"/>
</g>
</svg>
